<svg width="19" height="19" viewBox="0 0 19 19" fill="none" xmlns="http://www.w3.org/2000/svg">
<circle cx="9.5" cy="9.5" r="9.5" fill="#777A8D"/>
<path fill-rule="evenodd" clip-rule="evenodd" d="M5.03125 8.8125C5.03125 6.34437 7.03187 4.34375 9.5 4.34375C11.9681 4.34375 13.9688 6.34437 13.9688 8.8125C13.9688 10.4137 13.1424 11.7607 12.244 12.7549C11.343 13.752 10.336 14.4314 9.89806 14.7041C9.77886 14.7792 9.64086 14.819 9.5 14.819C9.35914 14.819 9.22114 14.7792 9.10194 14.7041C8.66423 14.4314 7.65704 13.752 6.75596 12.7549C5.85763 11.7607 5.03125 10.4137 5.03125 8.8125ZM9.5 10.6458C9.98623 10.6458 10.4525 10.4527 10.7964 10.1089C11.1402 9.76505 11.3333 9.29873 11.3333 8.8125C11.3333 8.32627 11.1402 7.85995 10.7964 7.51614C10.4525 7.17232 9.98623 6.97917 9.5 6.97917C9.01377 6.97917 8.54745 7.17232 8.20364 7.51614C7.85982 7.85995 7.66667 8.32627 7.66667 8.8125C7.66667 9.29873 7.85982 9.76505 8.20364 10.1089C8.54745 10.4527 9.01377 10.6458 9.5 10.6458Z" fill="white"/>
</svg>
